<svg xmlns="http://www.w3.org/2000/svg" role="img" viewBox="0 0 38 24" width="38" height="24" aria-labelledby="pi-jcb"><title id="pi-jcb">JCB</title><path opacity=".07" d="M35 0H3C1.3 0 0 1.3 0 3v18c0 1.7 1.4 3 3 3h32c1.7 0 3-1.3 3-3V3c0-1.7-1.4-3-3-3z"/><path fill="#fff" d="M35 1c1.1 0 2 .9 2 2v18c0 1.1-.9 2-2 2H3c-1.1 0-2-.9-2-2V3c0-1.1.9-2 2-2h32"/><path fill="#0B4EA2" d="M4 5h9.5v14H4z"/><path fill="#E60012" d="M13.5 5H23v14h-9.5z"/><path fill="#00A651" d="M23 5h11v14H23z"/><path fill="#fff" d="M7.2 9.2h2.8l.6 1.4.6-1.4h2.8v9.6h-2.3v-4.8l-1.1 2.6h-1.3l-1.1-2.6v4.8H7.2V9.2zm10.2 0h5.2c1.8 0 3 1.2 3 2.8 0 1.1-.6 2-1.6 2.4 1.2.3 2 1.3 2 2.6 0 1.8-1.3 3-3.2 3h-5.4V9.2zm3.1 4.3h1.5c.7 0 1.1-.4 1.1-1s-.4-1-1.1-1h-1.5v2zm0 4.4h1.8c.8 0 1.3-.4 1.3-1.1 0-.7-.5-1.1-1.3-1.1h-1.8v2.2zm7.4-8.7h3.1c2.2 0 3.6 1.4 3.6 3.5v2.6c0 2.1-1.4 3.5-3.6 3.5h-3.1V9.2zm3 7.3c1 0 1.6-.6 1.6-1.7v-2.2c0-1.1-.6-1.7-1.6-1.7h-.8v5.6h.8z"/></svg>
