<svg xmlns="http://www.w3.org/2000/svg" role="img" viewBox="0 0 38 24" width="38" height="24" aria-labelledby="pi-sepa"><title id="pi-sepa">SEPA</title><path opacity=".07" d="M35 0H3C1.3 0 0 1.3 0 3v18c0 1.7 1.4 3 3 3h32c1.7 0 3-1.3 3-3V3c0-1.7-1.4-3-3-3z"/><path fill="#fff" d="M35 1c1.1 0 2 .9 2 2v18c0 1.1-.9 2-2 2H3c-1.1 0-2-.9-2-2V3c0-1.1.9-2 2-2h32"/><path fill="#10298F" d="M6 8.5h26v7H6z"/><path fill="#FFCC00" d="M6 8.5l13 3.5L32 8.5v7l-13-3.5L6 15.5z"/><text x="19" y="14.5" text-anchor="middle" fill="#10298F" font-family="Arial,sans-serif" font-size="5.5" font-weight="700">SEPA</text></svg>
